Coordinates
nRows=126
nColumns=2
inDegrees=yes
endheader
time	ankle_angle_r	
2.3619	  9.523184	
2.43347	  9.610954	
2.50504	  9.635373	
2.57661	  9.655061	
2.64819	  9.636767	
2.71976	  9.624689	
2.79133	  9.677273	
2.8629	  9.674183	
2.93448	  9.592539	
3.00605	  9.588634	
3.07762	  9.624789	
3.14919	  9.569367	
3.22077	  9.577299	
3.29234	  9.665834	
3.36391	  9.641172	
3.43548	  9.600237	
3.50706	  9.656448	
3.57863	  9.678828	
3.6502	  9.616064	
3.72177	  9.599272	
3.79335	  9.646932	
3.86492	  9.652836	
3.93649	  9.612361	
4.00806	  9.583241	
4.07964	  9.609231	
4.15121	  9.631411	
4.22278	  9.598894	
4.29435	  9.599473	
4.36593	  9.639499	
4.4375	  9.633037	
4.50907	  9.596965	
4.58065	  9.604799	
4.65222	  9.628271	
4.72379	  9.610500	
4.79536	  9.592517	
4.86694	  9.617360	
4.93851	  9.622903	
5.01008	  9.597966	
5.08165	  9.636436	
5.15323	  9.705074	
5.2248	  9.707262	
5.29637	  9.652837	
5.36794	  9.664899	
5.43952	  9.766767	
5.51109	  9.758985	
5.58266	  9.660772	
5.65423	  9.672296	
5.72581	  9.716762	
5.79738	  9.665127	
5.86895	  9.617391	
5.94052	  9.631058	
6.0121	  9.623379	
6.08367	  9.581123	
6.15524	  9.539207	
6.22681	  9.563388	
6.29839	  9.608032	
6.36996	  9.557183	
6.44153	  9.528365	
6.5131	  9.581003	
6.58468	  9.590293	
6.65625	  9.535489	
6.72782	  9.524386	
6.7994	  9.572676	
6.87097	  9.561444	
6.94254	  9.558877	
7.01411	  9.631124	
7.08569	  9.636057	
7.15726	  9.581632	
7.22883	  9.567169	
7.3004	  9.597228	
7.37198	  9.647789	
7.44355	  9.637736	
7.51512	  9.568786	
7.58669	  9.573554	
7.65827	  9.598999	
7.72984	  9.551855	
7.80141	  9.542771	
7.87298	  9.572714	
7.94456	  9.556153	
8.01613	  9.528111	
8.0877	  9.540145	
8.15927	  9.574291	
8.23085	  9.562651	
8.30242	  9.543462	
8.37399	  9.568029	
8.44556	  9.571948	
8.51714	  9.550270	
8.58871	  9.561134	
8.66028	  9.601224	
8.73185	  9.617354	
8.80343	  9.606557	
8.875	  9.607140	
8.94657	  9.644137	
9.01815	  9.658310	
9.08972	  9.611328	
9.16129	  9.622293	
9.23286	  9.670954	
9.30444	  9.655199	
9.37601	  9.623713	
9.44758	  9.626846	
9.51915	  9.628109	
9.59073	  9.585138	
9.6623	  9.566278	
9.73387	  9.592068	
9.80544	  9.623482	
9.87702	  9.631257	
9.94859	  9.595748	
10.0202	  9.593921	
10.0917	  9.591528	
10.1633	  9.546173	
10.2349	  9.553641	
10.3065	  9.594117	
10.378	  9.574551	
10.4496	  9.535566	
10.5212	  9.555336	
10.5927	  9.578165	
10.6643	  9.585372	
10.7359	  9.602458	
10.8075	  9.598336	
10.879	  9.567817	
10.9506	  9.539147	
11.0222	  9.571829	
11.0937	  9.588289	
11.1653	  9.551053	
11.2369	  9.568141	
11.3085	  9.595027	
